<svg width="344" height="302" viewBox="0 0 344 302" fill="none" xmlns="http://www.w3.org/2000/svg">
<path d="M194.365 222.568L194.127 223.143L194.291 223.211L194.466 223.182L194.365 222.568Z" fill="#FC6BFF"/>
<path fill-rule="evenodd" clip-rule="evenodd" d="M47.389 75.6841L42.9956 67.2112L68.3504 54.0643L72.3565 65.0107C80.3356 64.2196 88.9157 64.8601 96.4119 65.9298C102.404 66.7849 107.738 67.9197 111.574 68.8407C113.492 69.3012 115.037 69.7085 116.103 70.001C116.636 70.1472 117.049 70.2648 117.33 70.3459C117.47 70.3865 117.578 70.418 117.65 70.4394C117.686 70.4501 117.714 70.4583 117.732 70.4639L117.753 70.4702L117.759 70.4719L117.76 70.4723C117.76 70.4723 117.761 70.4725 117.581 71.0683C118.189 70.9359 118.189 70.9362 118.189 70.9369L118.19 70.94L118.246 71.1977C118.284 71.3707 118.34 71.6278 118.414 71.964C118.561 72.6364 118.778 73.6252 119.056 74.8908C119.613 77.4221 120.417 81.0604 121.404 85.4886C123.378 94.345 126.087 106.36 129.023 118.996C134.901 144.291 141.675 172.003 145.302 181.892C147.411 187.641 151.52 193.029 156.542 197.887C161.56 202.742 167.459 207.041 173.105 210.617C178.748 214.192 184.126 217.038 188.094 218.99C190.077 219.965 191.707 220.717 192.839 221.225C193.406 221.479 193.848 221.671 194.148 221.8C194.212 221.827 194.269 221.852 194.319 221.873C194.365 221.893 194.406 221.91 194.441 221.925L194.846 221.859C195.226 221.797 195.783 221.706 196.495 221.591C197.92 221.361 199.962 221.033 202.434 220.642C207.377 219.86 214.039 218.825 220.913 217.817C227.786 216.809 234.876 215.826 240.673 215.147C243.571 214.807 246.151 214.543 248.222 214.39C250.274 214.238 251.879 214.191 252.795 214.303C254.841 214.555 257.176 215.648 258.953 216.635C259.852 217.135 260.628 217.619 261.18 217.978C261.455 218.158 261.676 218.307 261.828 218.411C261.904 218.463 261.963 218.505 262.003 218.533C262.023 218.547 262.039 218.558 262.049 218.566L262.062 218.574L262.065 218.577L262.066 218.578L262.703 219.034L262.115 219.552L262.114 219.552L262.112 219.554L262.054 219.605L261.959 219.688C261.857 219.777 261.706 219.908 261.511 220.078C261.121 220.417 260.553 220.909 259.842 221.519C258.42 222.739 256.425 224.433 254.131 226.331C249.549 230.123 243.76 234.741 238.974 238.008C229.792 244.276 217.038 250.532 206.604 255.213C201.382 257.556 196.732 259.508 193.387 260.874C191.715 261.558 190.368 262.095 189.44 262.461C188.976 262.644 188.616 262.785 188.372 262.88C188.318 262.901 188.27 262.919 188.228 262.935C188.174 262.956 188.129 262.974 188.094 262.987L188.005 263.022L188 263.023L187.999 263.024C187.999 263.024 187.999 263.024 187.992 263.006L187.998 263.024L187.815 263.094L150.425 253.695L157.896 274.065L120.579 287.753L91.0767 260.51L91.0164 271.472L82.2564 258.899L67.9405 264.363L76.8424 251.129L68.0823 238.557L82.344 242.951L83.0032 241.971L79.2497 206.091L22.3406 105.726L22.5306 105.414L23.0624 105.737C22.5306 105.414 22.5309 105.413 22.5309 105.413L22.5343 105.408L22.5444 105.391C22.5533 105.377 22.5664 105.355 22.5837 105.327C22.6184 105.271 22.6698 105.188 22.7375 105.079C22.8728 104.862 23.0733 104.544 23.3347 104.136C23.8575 103.321 24.6244 102.149 25.6027 100.719C27.5587 97.8582 30.3619 93.9608 33.7503 89.8129C37.6356 85.0569 42.3147 79.9409 47.389 75.6841ZM117.581 71.0683L117.761 70.4725L118.111 70.5784L118.189 70.9359L117.581 71.0683ZM120.864 286.322L91.0859 258.824L91.1041 255.523L105.42 250.059L91.1583 245.666L91.2459 229.717L84.0863 240.36L80.4607 205.703L23.7857 105.751L23.7936 105.738C23.9264 105.525 24.124 105.211 24.3825 104.808C24.8995 104.002 25.6596 102.841 26.6302 101.421C28.5718 98.5821 31.3536 94.7144 34.7143 90.6005C38.5367 85.9215 43.0842 80.9539 47.9763 76.8168L57.3599 94.9138L74.9711 101.47L79.1714 83.6313L72.7985 66.2183C80.5186 65.4923 88.8524 66.1085 96.2361 67.1622C102.18 68.0104 107.475 69.1367 111.283 70.0511C113.187 70.5082 114.719 70.9121 115.773 71.2015C116.301 71.3461 116.709 71.4621 116.984 71.5418L117.051 71.5612L117.198 72.2301C117.345 72.9029 117.562 73.8922 117.84 75.1583C118.397 77.6905 119.201 81.33 120.189 85.7595C122.164 94.6182 124.873 106.637 127.81 119.278C133.679 144.534 140.473 172.341 144.134 182.32C146.331 188.312 150.581 193.853 155.676 198.782C160.775 203.715 166.749 208.065 172.438 211.669C178.13 215.274 183.549 218.141 187.544 220.107C189.542 221.09 191.186 221.848 192.331 222.361C192.903 222.617 193.351 222.812 193.656 222.944L193.746 222.982C193.791 223.002 193.833 223.019 193.871 223.036C193.924 223.058 193.969 223.077 194.005 223.092C194.045 223.109 194.075 223.122 194.095 223.13L194.125 223.142L194.126 223.143C194.126 223.143 194.127 223.143 194.365 222.568C194.466 223.182 194.467 223.182 194.467 223.182L194.468 223.182L195.641 222.991C195.94 222.942 196.292 222.885 196.694 222.82C198.117 222.59 200.158 222.262 202.628 221.871C207.569 221.089 214.226 220.056 221.094 219.049C227.963 218.041 235.039 217.06 240.818 216.383C243.708 216.045 246.268 215.783 248.314 215.632C250.379 215.479 251.866 215.443 252.643 215.539C254.435 215.759 256.592 216.747 258.348 217.723C259.216 218.206 259.967 218.674 260.5 219.021C260.566 219.064 260.629 219.105 260.688 219.144C260.299 219.482 259.736 219.969 259.031 220.574C257.614 221.79 255.624 223.479 253.338 225.372C248.761 229.159 243.009 233.747 238.272 236.98C229.187 243.183 216.517 249.402 206.094 254.077C200.888 256.413 196.251 258.359 192.916 259.722C191.249 260.403 189.907 260.939 188.983 261.303C188.521 261.486 188.163 261.625 187.921 261.719C187.849 261.747 187.787 261.771 187.736 261.791L148.445 251.914L156.299 273.325L120.864 286.322ZM44.6737 67.7433L67.6675 55.8206L77.8742 83.709L74.0829 99.8113L58.2441 93.9147L44.6737 67.7433ZM84.2883 242.291L89.9784 233.831L89.9084 246.583L101.599 250.185L89.864 254.664L89.8474 257.68L89.7932 267.539L82.7215 257.389L71.1648 261.8L78.351 251.117L71.1699 240.811L82.861 244.412L84.2883 242.291Z" fill="#FC6BFF"/>
<path d="M117.581 71.0683C118.189 70.9359 118.189 70.9362 118.189 70.9369L118.19 70.94L118.246 71.1977C118.284 71.3707 118.34 71.6278 118.414 71.964C118.561 72.6364 118.778 73.6252 119.056 74.8908C119.613 77.4221 120.417 81.0604 121.404 85.4886C123.378 94.345 126.087 106.36 129.023 118.996C134.901 144.291 141.675 172.003 145.302 181.892C147.411 187.641 151.52 193.029 156.542 197.887C161.56 202.742 167.459 207.041 173.105 210.617C178.748 214.192 184.126 217.038 188.094 218.99C190.077 219.965 191.707 220.717 192.84 221.225C193.406 221.479 193.848 221.671 194.148 221.8C194.212 221.827 194.269 221.852 194.319 221.873C194.365 221.893 194.406 221.91 194.441 221.925L194.846 221.859C195.226 221.797 195.783 221.706 196.495 221.591C197.92 221.361 199.962 221.033 202.434 220.642C207.377 219.86 214.039 218.825 220.913 217.817C227.786 216.809 234.876 215.826 240.673 215.147C243.571 214.807 246.151 214.543 248.222 214.39C250.274 214.238 251.879 214.191 252.795 214.303C254.841 214.555 257.176 215.648 258.953 216.635C259.852 217.135 260.628 217.619 261.18 217.978C261.455 218.158 261.676 218.307 261.828 218.411C261.904 218.463 261.963 218.505 262.003 218.533C262.023 218.547 262.039 218.558 262.049 218.566L262.062 218.574L262.065 218.577L262.066 218.578L262.703 219.034L262.115 219.552L262.114 219.552L262.112 219.554L262.054 219.605L261.959 219.688C261.857 219.777 261.706 219.908 261.511 220.078C261.121 220.417 260.553 220.909 259.842 221.519C258.42 222.739 256.425 224.433 254.131 226.331C249.549 230.123 243.76 234.741 238.974 238.008C229.792 244.276 217.038 250.532 206.604 255.213C201.382 257.556 196.732 259.508 193.387 260.874C191.715 261.558 190.368 262.095 189.44 262.461C188.976 262.644 188.616 262.785 188.372 262.88C188.318 262.901 188.27 262.919 188.228 262.935C188.174 262.956 188.129 262.974 188.094 262.987L188.005 263.022L188 263.023L187.999 263.024C187.999 263.024 187.999 263.024 187.992 263.006M117.581 71.0683L118.189 70.9359L118.111 70.5784L117.761 70.4725L117.581 71.0683ZM117.581 71.0683C117.761 70.4725 117.76 70.4723 117.76 70.4723L117.759 70.4719L117.753 70.4702L117.732 70.4639C117.714 70.4583 117.686 70.4501 117.65 70.4394C117.578 70.418 117.47 70.3865 117.33 70.3459C117.049 70.2648 116.636 70.1472 116.103 70.001C115.037 69.7085 113.492 69.3012 111.574 68.8407C107.738 67.9197 102.404 66.7849 96.4119 65.9298C88.9157 64.8601 80.3356 64.2196 72.3565 65.0107L68.3504 54.0643L42.9956 67.2112L47.389 75.6841C42.3147 79.9409 37.6356 85.0569 33.7503 89.8129C30.3619 93.9608 27.5587 97.8582 25.6027 100.719C24.6244 102.149 23.8575 103.321 23.3347 104.136C23.0733 104.544 22.8728 104.862 22.7375 105.079C22.6698 105.188 22.6184 105.271 22.5837 105.327C22.5664 105.355 22.5533 105.377 22.5444 105.391L22.5343 105.408L22.5309 105.413C22.5309 105.413 22.5306 105.414 23.0624 105.737L22.5306 105.414L22.3406 105.726L79.2497 206.091L83.0032 241.971L82.344 242.951L68.0823 238.557L76.8424 251.129L67.9405 264.363L82.2564 258.899L91.0164 271.472L91.0767 260.51L120.579 287.753L157.896 274.065L150.425 253.695L187.815 263.094L187.998 263.024L187.992 263.006M194.365 222.568C194.466 223.182 194.467 223.182 194.467 223.182L194.468 223.182L195.641 222.991C195.94 222.942 196.292 222.885 196.694 222.82C198.117 222.59 200.158 222.262 202.628 221.871C207.569 221.09 214.226 220.056 221.094 219.049C227.963 218.041 235.039 217.06 240.818 216.383C243.708 216.045 246.268 215.783 248.314 215.632C250.379 215.479 251.866 215.443 252.643 215.539C254.435 215.759 256.592 216.747 258.348 217.723C259.216 218.206 259.967 218.674 260.5 219.021C260.566 219.064 260.629 219.105 260.688 219.144C260.299 219.482 259.736 219.969 259.031 220.574C257.614 221.79 255.624 223.479 253.338 225.372C248.761 229.159 243.009 233.747 238.272 236.98C229.187 243.183 216.517 249.402 206.094 254.077C200.888 256.413 196.251 258.36 192.916 259.722C191.249 260.403 189.907 260.939 188.983 261.303C188.521 261.486 188.163 261.625 187.921 261.719C187.849 261.747 187.787 261.771 187.736 261.791L148.445 251.914L156.299 273.325L120.864 286.322L91.0859 258.824L91.1041 255.523L105.42 250.059L91.1583 245.666L91.2459 229.717L84.0863 240.36L80.4607 205.703L23.7857 105.751L23.7936 105.738C23.9264 105.525 24.124 105.211 24.3825 104.808C24.8995 104.002 25.6596 102.841 26.6302 101.421C28.5718 98.5821 31.3536 94.7144 34.7143 90.6005C38.5367 85.9215 43.0842 80.9539 47.9763 76.8168L57.3599 94.9138L74.9711 101.47L79.1714 83.6313L72.7985 66.2183C80.5186 65.4923 88.8524 66.1085 96.2361 67.1622C102.18 68.0104 107.475 69.1367 111.283 70.0511C113.187 70.5082 114.719 70.9121 115.773 71.2015C116.301 71.3461 116.709 71.4621 116.984 71.5418L117.051 71.5612L117.198 72.2301C117.345 72.9029 117.562 73.8922 117.84 75.1583C118.397 77.6905 119.201 81.33 120.189 85.7595C122.164 94.6182 124.873 106.637 127.81 119.278C133.679 144.534 140.473 172.341 144.134 182.32C146.331 188.312 150.581 193.853 155.676 198.782C160.775 203.715 166.749 208.065 172.438 211.669C178.13 215.274 183.549 218.141 187.544 220.107C189.542 221.09 191.186 221.848 192.331 222.361C192.903 222.617 193.351 222.812 193.656 222.944L193.746 222.982C193.791 223.002 193.833 223.019 193.871 223.036C193.924 223.058 193.969 223.077 194.005 223.092C194.045 223.109 194.075 223.122 194.095 223.13L194.125 223.142L194.126 223.143C194.126 223.143 194.127 223.143 194.365 222.568ZM194.365 222.568L194.127 223.143L194.291 223.211L194.466 223.182L194.365 222.568ZM187.992 263.006C187.988 262.996 187.982 262.98 187.972 262.955L187.992 263.006ZM89.9784 233.831L84.2883 242.291L82.861 244.412L71.1699 240.811L78.351 251.117L71.1648 261.8L82.7215 257.389L89.7932 267.539L89.8474 257.68L89.864 254.664L101.599 250.185L89.9084 246.583L89.9784 233.831ZM67.6675 55.8206L44.6737 67.7433L58.2441 93.9147L74.0829 99.8113L77.8742 83.709L67.6675 55.8206Z" stroke="#FC6BFF" stroke-width="2"/>
<path fill-rule="evenodd" clip-rule="evenodd" d="M250.31 19.1743L250.415 19.3236L252.189 63.4058L251.189 75.8248C257.942 74.3 265.735 73.4288 274.728 73.4288C310.397 73.4288 327.201 87.1364 335.036 100.977C338.94 107.873 340.595 114.763 341.275 119.924C341.615 122.506 341.712 124.66 341.724 126.171C341.729 126.926 341.714 127.521 341.697 127.93C341.694 128.001 341.691 128.067 341.688 128.127L341.685 128.181C341.684 128.201 341.683 128.221 341.682 128.239C341.678 128.301 341.675 128.354 341.672 128.399C341.67 128.431 341.668 128.458 341.667 128.481C341.666 128.497 341.665 128.511 341.664 128.523C341.663 128.537 341.662 128.548 341.661 128.555L341.661 128.564L341.66 128.567C341.66 128.567 341.66 128.567 341.652 128.567C341.646 128.566 341.636 128.566 341.619 128.564C341.588 128.562 341.534 128.557 341.439 128.549L341.66 128.568L341.612 129.137H244.34L242.731 137.268H341.662V162.559C341.662 165.647 339.157 168.149 336.066 168.149H213.389C210.298 168.149 207.793 165.647 207.793 162.559V145.789H189.854C187.205 145.789 184.919 143.934 184.377 141.344L178.675 114.131L162.953 111.979C160.486 111.641 158.539 109.715 158.176 107.254L150.438 54.7017C149.941 51.3268 152.56 48.2981 155.975 48.2981H177.248V19.3303L177.365 19.1679L177.369 19.1619L177.38 19.1463C177.39 19.1328 177.405 19.113 177.423 19.0874C177.461 19.0361 177.516 18.9613 177.588 18.8656C177.732 18.6742 177.941 18.3991 178.208 18.0613C178.741 17.3862 179.502 16.4591 180.416 15.45C182.232 13.4453 184.7 11.0643 187.212 9.72487C190.285 8.08638 192.834 7.80197 195.363 7.64247C195.63 7.62557 195.897 7.61006 196.165 7.59453C198.412 7.46398 200.665 7.33307 203.408 6.37993C204.839 5.8827 205.982 5.09313 207.143 4.29124C207.548 4.01178 207.955 3.73082 208.377 3.46022C209.978 2.43351 211.721 1.63387 214.049 2.1736C215.675 2.55044 217.758 3.73517 219.714 4.86302L219.953 5.00066C221.886 6.11535 223.693 7.15732 225.04 7.54531C227.029 8.11807 228.444 8.25099 229.548 8.1949C230.592 8.14182 231.382 7.91981 232.183 7.69499L232.254 7.67489L232.325 7.65521C233.174 7.41754 234.058 7.1859 235.18 7.25462C236.298 7.32313 237.602 7.6853 239.338 8.54017C242.076 9.88895 244.828 12.5765 246.865 14.8707C247.891 16.0268 248.751 17.1004 249.354 17.8852C249.656 18.2778 249.894 18.5986 250.057 18.822C250.139 18.9337 250.201 19.021 250.244 19.0809C250.265 19.1108 250.282 19.1338 250.293 19.1495L250.306 19.1677L250.309 19.1725L250.31 19.1739L250.31 19.1743ZM203.816 7.5532C205.422 6.99519 206.763 6.06811 207.955 5.24384C208.333 4.98241 208.697 4.73128 209.049 4.50559C210.542 3.54796 211.925 2.9564 213.768 3.38368C215.173 3.70928 217.075 4.7759 219.093 5.93898C219.2 6.0007 219.307 6.0627 219.415 6.12483C221.27 7.19554 223.196 8.30714 224.695 8.73893C226.789 9.34173 228.344 9.49996 229.611 9.43553C230.798 9.37519 231.708 9.11919 232.505 8.8951C232.557 8.88037 232.609 8.86578 232.66 8.85139C233.494 8.61793 234.206 8.43951 235.104 8.49453C236.005 8.54976 237.145 8.84514 238.788 9.65436C241.296 10.8896 243.913 13.4185 245.934 15.6949C246.937 16.8241 247.778 17.8742 248.368 18.6419C248.44 18.7353 248.508 18.8246 248.572 18.9092H179.122C179.135 18.8927 179.149 18.876 179.162 18.8591C179.169 18.8495 179.177 18.8399 179.185 18.8303C179.704 18.1718 180.447 17.2671 181.338 16.2835C183.132 14.3029 185.482 12.0552 187.797 10.8208C190.638 9.30643 192.977 9.03767 195.441 8.88223C195.704 8.86563 195.969 8.85035 196.237 8.83492C198.483 8.70544 200.902 8.56598 203.816 7.5532ZM241.463 137.268H207.793V144.547H189.854C187.794 144.547 186.016 143.104 185.594 141.09L178.551 107.474C178.508 107.273 178.481 107.07 178.468 106.866C178.439 106.401 178.411 105.932 178.385 105.459C177.428 88.1973 178.409 65.5329 178.486 63.8181C178.49 63.7313 178.491 63.6569 178.491 63.5724V20.1514H249.204L250.943 63.3808L249.918 76.1226C230.693 80.7877 220.153 90.8467 214.419 100.977C210.515 107.873 208.861 114.763 208.18 119.924C207.84 122.506 207.743 124.66 207.731 126.171C207.726 126.926 207.741 127.521 207.758 127.93C207.767 128.134 207.776 128.292 207.783 128.399C207.786 128.453 207.789 128.494 207.791 128.523C207.792 128.537 207.793 128.548 207.794 128.555L207.795 128.564L207.795 128.567C207.795 128.568 207.795 128.568 208.414 128.516L207.795 128.568L207.843 129.137H243.072L241.463 137.268ZM155.975 49.5404H177.248V56.4536H164.988C161.615 56.4536 159.008 59.4122 159.437 62.7543L164.203 99.8978C164.518 102.359 166.42 104.317 168.873 104.708L177.171 106.028C177.189 106.335 177.208 106.64 177.227 106.943C177.243 107.208 177.279 107.47 177.333 107.729L178.404 112.84L163.122 110.748C161.203 110.485 159.689 108.987 159.407 107.073L151.668 54.5209C151.282 51.896 153.319 49.5404 155.975 49.5404ZM164.988 57.6958H177.248V63.5724C177.248 63.6409 177.247 63.6966 177.244 63.7626C177.168 65.4488 176.211 87.5319 177.102 104.759L169.069 103.481C167.161 103.177 165.682 101.654 165.436 99.7399L160.671 62.5963C160.337 59.997 162.364 57.6958 164.988 57.6958ZM209.036 144.547V162.559C209.036 164.961 210.985 166.907 213.389 166.907H336.066C338.47 166.907 340.419 164.961 340.419 162.559V138.51H241.217H209.036V144.547ZM340.454 127.878L340.454 127.895H243.318H209.001L209.001 127.878C208.984 127.489 208.969 126.914 208.975 126.18C208.986 124.712 209.081 122.611 209.413 120.086C210.079 115.036 211.697 108.309 215.501 101.589C221.009 91.859 232.418 81.7546 251.085 77.122C257.829 75.5655 265.652 74.671 274.728 74.671C310.02 74.671 326.373 88.1964 333.954 101.589C337.758 108.309 339.376 115.036 340.042 120.086C340.374 122.611 340.469 124.712 340.48 126.18C340.486 126.914 340.471 127.489 340.454 127.878Z" fill="#1E1E1E"/>
<path d="M250.31 19.1743C250.31 19.1743 250.311 19.1745 249.801 19.5303L250.31 19.1743ZM250.31 19.1743L250.415 19.3236L252.189 63.4058L251.189 75.8248C257.942 74.3 265.735 73.4288 274.728 73.4288C310.397 73.4288 327.201 87.1364 335.036 100.977C338.94 107.873 340.595 114.763 341.275 119.924C341.615 122.506 341.712 124.66 341.724 126.171C341.729 126.926 341.714 127.522 341.697 127.93C341.694 128.001 341.691 128.067 341.688 128.127M250.31 19.1743L250.31 19.1739L250.309 19.1725L250.306 19.1677L250.293 19.1495C250.282 19.1338 250.265 19.1108 250.244 19.0809C250.201 19.021 250.139 18.9337 250.057 18.822C249.894 18.5986 249.656 18.2778 249.354 17.8852C248.751 17.1004 247.891 16.0268 246.865 14.8707C244.828 12.5765 242.076 9.88895 239.338 8.54017C237.602 7.6853 236.298 7.32313 235.18 7.25462C234.058 7.1859 233.174 7.41754 232.325 7.65521M341.688 128.127L341.685 128.181M341.688 128.127C341.687 128.146 341.686 128.164 341.685 128.181M177.365 19.1679L177.248 19.3303V48.2981H155.975C152.56 48.2981 149.941 51.3268 150.438 54.7017L158.176 107.254C158.539 109.715 160.486 111.641 162.953 111.979L178.675 114.131L184.377 141.344C184.919 143.934 187.205 145.789 189.854 145.789H207.793V162.559C207.793 165.647 210.298 168.149 213.389 168.149H336.066C339.157 168.149 341.662 165.647 341.662 162.559V137.268H242.731L244.34 129.137H341.612L341.66 128.568L341.439 128.549M177.365 19.1679L177.87 19.5303C177.365 19.1679 177.365 19.1679 177.365 19.1679ZM177.365 19.1679L177.369 19.1619L177.38 19.1463C177.39 19.1328 177.405 19.113 177.423 19.0874C177.461 19.0361 177.516 18.9613 177.588 18.8656C177.732 18.6742 177.941 18.3991 178.208 18.0613C178.741 17.3862 179.502 16.4591 180.416 15.45C182.232 13.4453 184.7 11.0643 187.212 9.72487C190.285 8.08638 192.834 7.80197 195.363 7.64247C195.63 7.62557 195.897 7.61006 196.165 7.59453C198.412 7.46398 200.665 7.33307 203.408 6.37993C204.839 5.8827 205.982 5.09313 207.143 4.29124C207.548 4.01178 207.955 3.73082 208.377 3.46022C209.978 2.43351 211.721 1.63387 214.049 2.1736C215.675 2.55044 217.758 3.73517 219.714 4.86302L219.953 5.00066C221.886 6.11535 223.693 7.15732 225.04 7.54531C227.029 8.11807 228.444 8.25099 229.548 8.1949C230.592 8.14182 231.382 7.91981 232.183 7.69499L232.254 7.67489M232.254 7.67489C232.278 7.66833 232.301 7.66176 232.325 7.65521M232.254 7.67489L232.325 7.65521M341.685 128.181C341.684 128.201 341.683 128.221 341.682 128.239C341.678 128.301 341.675 128.354 341.672 128.399C341.67 128.431 341.668 128.458 341.667 128.481C341.666 128.497 341.665 128.511 341.664 128.523C341.663 128.537 341.662 128.548 341.661 128.555L341.661 128.564L341.66 128.567C341.66 128.567 341.66 128.567 341.652 128.567C341.646 128.566 341.636 128.566 341.619 128.564C341.588 128.562 341.534 128.557 341.439 128.549M341.439 128.549L341.043 128.516C341.222 128.531 341.349 128.542 341.439 128.549ZM207.955 5.24384C206.763 6.06811 205.422 6.99519 203.816 7.5532C200.902 8.56598 198.483 8.70544 196.237 8.83492C195.969 8.85035 195.704 8.86563 195.441 8.88223C192.977 9.03767 190.638 9.30643 187.797 10.8208C185.482 12.0552 183.132 14.3029 181.338 16.2835C180.447 17.2671 179.704 18.1718 179.185 18.8303C179.177 18.8399 179.169 18.8495 179.162 18.8591C179.149 18.876 179.135 18.8927 179.122 18.9092H248.572C248.508 18.8246 248.44 18.7353 248.368 18.6419C247.778 17.8742 246.937 16.8241 245.934 15.6949C243.913 13.4185 241.296 10.8896 238.788 9.65436C237.145 8.84514 236.005 8.54976 235.104 8.49453C234.206 8.43951 233.494 8.61793 232.66 8.85139C232.609 8.86578 232.557 8.88037 232.505 8.8951C231.708 9.11919 230.798 9.37519 229.611 9.43553C228.344 9.49996 226.789 9.34173 224.695 8.73893C223.196 8.30714 221.27 7.19554 219.415 6.12483C219.307 6.0627 219.2 6.0007 219.093 5.93898C217.075 4.7759 215.173 3.70928 213.768 3.38368C211.925 2.9564 210.542 3.54796 209.049 4.50559C208.697 4.73128 208.333 4.98241 207.955 5.24384ZM209.036 144.547V162.559C209.036 164.961 210.985 166.907 213.389 166.907H336.066C338.47 166.907 340.419 164.961 340.419 162.559V138.51H241.217H209.036V144.547ZM241.463 137.268L243.072 129.137H207.843L207.795 128.568L208.414 128.516C207.795 128.568 207.795 128.568 207.795 128.567L207.795 128.564L207.794 128.555C207.793 128.548 207.792 128.537 207.791 128.523C207.789 128.494 207.786 128.453 207.783 128.399C207.776 128.292 207.767 128.134 207.758 127.93C207.741 127.522 207.726 126.926 207.731 126.171C207.743 124.66 207.84 122.506 208.18 119.924C208.861 114.763 210.515 107.873 214.419 100.977C220.153 90.8467 230.693 80.7877 249.918 76.1226L250.943 63.3808L249.204 20.1514H178.491V63.5724C178.491 63.6569 178.49 63.7313 178.486 63.8181C178.409 65.5329 177.428 88.1973 178.385 105.459C178.411 105.932 178.439 106.401 178.468 106.866C178.481 107.07 178.508 107.273 178.551 107.474L185.594 141.09C186.016 143.104 187.794 144.547 189.854 144.547H207.793V137.268H241.463ZM243.318 127.895H209.001L209.001 127.878C208.984 127.489 208.969 126.914 208.975 126.18C208.986 124.712 209.081 122.611 209.413 120.086C210.079 115.036 211.697 108.309 215.501 101.589C221.009 91.859 232.418 81.7546 251.085 77.122C257.829 75.5655 265.652 74.671 274.728 74.671C310.02 74.671 326.373 88.1963 333.954 101.589C337.758 108.309 339.376 115.036 340.042 120.086C340.375 122.611 340.469 124.712 340.48 126.18C340.486 126.914 340.471 127.489 340.454 127.878L340.454 127.895H243.318ZM177.248 49.5404H155.975C153.319 49.5404 151.282 51.896 151.668 54.5209L159.407 107.073C159.689 108.987 161.203 110.485 163.122 110.748L178.404 112.84L177.333 107.729C177.279 107.47 177.243 107.208 177.227 106.943C177.208 106.64 177.189 106.335 177.171 106.028L168.873 104.708C166.42 104.317 164.518 102.359 164.203 99.8978L159.437 62.7543C159.008 59.4122 161.615 56.4536 164.988 56.4536H177.248V49.5404ZM177.248 57.6958H164.988C162.364 57.6958 160.337 59.997 160.671 62.5963L165.436 99.7399C165.682 101.654 167.161 103.177 169.069 103.481L177.102 104.759C176.211 87.5319 177.168 65.4488 177.244 63.7626C177.247 63.6966 177.248 63.6409 177.248 63.5724V57.6958Z" stroke="#FC6BFF" stroke-width="3" stroke-linecap="round"/>
</svg>
