<svg xmlns="http://www.w3.org/2000/svg" width="420" height="398" viewBox="0 0 420 398" fill="none">
  <path d="M0.5 395.5H67M419.5 395.5H358M358 395.5V269L212.5 5L67 269V395.5M358 395.5H323.5M67 395.5H262M262 395.5V269H323.5V395.5M262 395.5H323.5M164.5 351H200.25M164.5 351V310M164.5 351H128.75M164.5 269H200.25M164.5 269V310M164.5 269H128.75M200.25 269H236V310M200.25 269V351M200.25 351H236V310M164.5 310H236M164.5 310H93M93 310V269H128.75M93 310V351H128.75M128.75 269V351M212.5 125.5L214.75 226M212.5 125.5C236.335 124.715 252.213 151.498 262 177.608M212.5 125.5C189.462 126.259 174.854 152.251 166.061 177.608M214.75 226H154.5C154.5 226 157.568 202.1 166.061 177.608M214.75 226H275C275 226 271.18 202.1 262 177.608M262 177.608H166.061" stroke="#FC6BFF" stroke-width="4"/>
</svg>