<svg xmlns="http://www.w3.org/2000/svg" width="541" height="395" viewBox="0 0 541 395" fill="none">
  <path d="M0 393H71.1407M541 393H472.858M71.1407 393L276.689 108.474M71.1407 393H115.397M344.95 13.9863L276.689 108.474M335.23 393H472.858M335.23 393L276.689 108.474M335.23 393H276.689M254.783 2L276.689 108.474M472.858 393L205.15 2M276.689 108.474C281.106 146.829 277.78 240.485 229.139 308.27M229.139 308.27C180.499 376.054 133.044 393 115.397 393M229.139 308.27C225.476 336.513 229.857 393 276.689 393M115.397 393H276.689" stroke="#FC6BFF" stroke-width="4"/>
</svg>