<svg xmlns="http://www.w3.org/2000/svg" width="201" height="300" viewBox="0 0 201 300" fill="none">
  <path fill-rule="evenodd" clip-rule="evenodd" d="M158.55 65.7118L132.132 34.2723C132.104 34.2356 132.07 34.1911 132.029 34.1391C131.902 33.976 131.715 33.7395 131.472 33.4417C131.082 32.966 130.547 32.3334 129.881 31.5928L105.203 2.22404C102.711 -0.741346 98.1417 -0.741346 95.65 2.22404L1.47012 114.307C-1.93333 118.358 0.951068 124.532 6.24663 124.532H194.606C199.902 124.532 202.786 118.358 199.383 114.307L191.82 105.307C191.821 105.306 191.821 105.306 191.821 105.306L191.82 105.305L191.812 105.296L191.791 105.27C191.773 105.249 191.747 105.218 191.713 105.179C191.711 105.177 191.708 105.174 191.706 105.171L160.624 68.1809L160.6 68.15C160.559 68.0967 160.497 68.0189 160.417 67.9181C160.256 67.7167 160.018 67.4237 159.708 67.0537C159.395 66.6801 159.007 66.2279 158.55 65.7118ZM96.8441 3.22417L53.8607 54.3786C58.4468 50.2287 62.6855 45.5529 66.8859 40.9193C68.3933 39.2564 69.8958 37.599 71.4076 35.9733C78.9418 27.8715 86.7123 20.5576 96.364 17.77C105.956 14.9995 114.816 19.047 121.26 23.7547L104.009 3.22417C102.14 1.00013 98.7129 1.00013 96.8441 3.22417ZM2.66426 115.307L48.5008 60.7574C55.7737 55.5017 62.0396 48.5878 68.0949 41.9062L68.0971 41.9038C69.5902 40.2563 71.0705 38.6229 72.5499 37.0321C80.0869 28.9272 87.6007 21.921 96.7971 19.2648C105.871 16.6441 114.366 20.559 120.692 25.2707C123.843 27.6174 126.418 30.1353 128.206 32.0685C128.379 32.256 128.545 32.4379 128.704 32.6136L130.915 35.2447L130.932 35.2673C130.946 35.2866 130.957 35.3011 130.964 35.3104L130.972 35.3205L130.974 35.3227L130.974 35.323L130.978 35.32L148.592 56.283C148.12 55.9089 147.636 55.5354 147.141 55.164C138.866 48.9547 127.38 43.2377 114.869 45.6985C102.387 48.1537 92.4752 58.0154 82.8781 69.2182C80.8746 71.557 78.8836 73.9553 76.8835 76.3647C69.2373 85.5756 61.4582 94.9465 52.3375 101.756C40.7996 110.371 30.2122 115.684 22.5167 118.842C18.6691 120.421 15.545 121.46 13.3874 122.104C12.3086 122.427 11.4716 122.65 10.9066 122.792C10.6241 122.863 10.4097 122.913 10.2671 122.946C10.2123 122.959 10.168 122.969 10.1346 122.976H6.24663C2.27495 122.976 0.111657 118.345 2.66426 115.307ZM185.189 99.8371L174.448 87.0537C174.426 87.0705 174.426 87.0705 174.426 87.0705L174.418 87.0606C174.413 87.0531 174.404 87.0412 174.391 87.0252C174.366 86.9932 174.328 86.9447 174.278 86.8807C174.176 86.7529 174.023 86.5638 173.821 86.3231C173.416 85.8417 172.816 85.1548 172.038 84.3407C170.48 82.7111 168.218 80.5787 165.399 78.5651C159.747 74.5288 151.955 71.0344 143.14 72.8647C134.295 74.7015 127.563 80.999 120.922 88.4545C119.54 90.0061 118.161 91.6089 116.769 93.2274C111.527 99.3225 106.092 105.641 99.5539 110.289C91.2947 116.161 82.9295 119.717 76.6321 121.805C75.2516 122.263 73.9697 122.65 72.8092 122.976H126.89C126.908 122.975 126.935 122.972 126.97 122.969C127.045 122.961 127.159 122.95 127.309 122.933C127.608 122.899 128.049 122.844 128.609 122.759C129.73 122.591 131.327 122.305 133.221 121.838C137.014 120.904 141.97 119.25 146.672 116.376C150.438 114.073 153.345 111.003 156.261 107.923L156.261 107.922C156.97 107.174 157.679 106.424 158.402 105.685C162.061 101.942 166.015 98.5219 171.77 97.3164C177.066 96.2072 181.726 97.8119 185.189 99.8371ZM135.026 122.976H194.606C198.578 122.976 200.741 118.345 198.189 115.307L190.52 106.18C190.461 106.113 190.377 106.018 190.268 105.899C190.031 105.64 189.677 105.27 189.218 104.831C188.298 103.951 186.96 102.803 185.29 101.726C181.942 99.5671 177.332 97.7415 172.09 98.8394C166.81 99.9455 163.129 103.077 159.517 106.772C158.832 107.473 158.147 108.197 157.454 108.93C154.528 112.023 151.447 115.282 147.486 117.703C143.183 120.333 138.694 121.969 135.026 122.976ZM65.8814 122.976H15.8148C17.7943 122.331 20.2575 121.451 23.1092 120.281C30.9076 117.081 41.6131 111.707 53.271 103.003C62.5555 96.0704 70.4901 86.5097 78.1484 77.282L78.1487 77.2817L78.1494 77.2808C80.1328 74.891 82.0977 72.5233 84.0626 70.2297C93.681 59.002 103.279 49.5644 115.17 47.2253C127.033 44.8919 138.06 50.2968 146.204 56.4079C150.265 59.4544 153.575 62.6519 155.87 65.0889C156.432 65.6858 156.933 66.2366 157.369 66.7279L159.411 69.1577L159.413 69.1611L159.423 69.1741L159.425 69.177L159.426 69.1776L159.427 69.1769L166.172 77.2047C160.357 73.0834 152.17 69.4002 142.823 71.3412C133.435 73.2907 126.408 79.954 119.757 87.4204C118.333 89.0191 116.926 90.6539 115.517 92.2924C110.289 98.3681 105.018 104.495 98.6498 109.022C90.5493 114.781 82.334 118.275 76.1408 120.328C73.0456 121.354 70.4591 122.02 68.6499 122.428C67.7454 122.632 67.0355 122.772 66.5538 122.86C66.313 122.904 66.1293 122.936 66.0068 122.956C65.9531 122.965 65.9112 122.972 65.8814 122.976Z" fill="#FC6BFF"/>
  <path fill-rule="evenodd" clip-rule="evenodd" d="M94.5017 295.942L32.8542 130.173H167.839L106.191 295.942C104.179 301.353 96.5139 301.353 94.5017 295.942ZM95.9629 295.4L35.0956 131.729H165.598L104.73 295.4C103.221 299.458 97.472 299.458 95.9629 295.4Z" fill="#FC6BFF"/>
</svg>