<svg xmlns="http://www.w3.org/2000/svg" width="606" height="395" viewBox="0 0 606 395" fill="none">
  <path d="M72.5599 393V2H535.442V393H395.326M0 393H102.585M606 393H395.326M167.138 393V308.876H222.183M167.138 393H222.183M167.138 393H130.107M222.183 308.876V393M222.183 308.876H279.23V393M222.183 393H279.23M279.23 393H357.295M357.295 393V51.1712H395.326V393M357.295 393H395.326M102.585 393V308.876H130.107V393M102.585 393H130.107M439.363 60.65H498.912V134.703H439.363V60.65ZM439.363 166.694H498.912V240.747H439.363V166.694ZM439.363 271.553H498.912V345.606H439.363V271.553ZM102.585 61.8348H162.134V135.888H102.585V61.8348ZM102.585 166.694H162.134V240.747H102.585V166.694ZM186.154 60.65H245.703V134.703H186.154V60.65ZM186.154 165.509H245.703V239.562H186.154V165.509ZM269.723 61.8348H329.272V135.888H269.723V61.8348ZM269.723 166.694H329.272V240.747H269.723V166.694Z" stroke="#FC6BFF" stroke-width="4"/>
</svg>