<svg width="426" height="300" viewBox="0 0 426 300" fill="none" xmlns="http://www.w3.org/2000/svg">
<rect x="2.7881" y="191.095" width="98.2404" height="98.2404" rx="14" transform="rotate(-35.3133 2.7881 191.095)" stroke="#FC6BFF" stroke-width="2"/>
<circle cx="31.4974" cy="194.884" r="4.97094" transform="rotate(-35.3133 31.4974 194.884)" fill="#FC6BFF" stroke="#FC6BFF" stroke-width="2"/>
<circle cx="77.0037" cy="162.648" r="4.97094" transform="rotate(-35.3133 77.0037 162.648)" fill="#FC6BFF" stroke="#FC6BFF" stroke-width="2"/>
<circle cx="48.5108" cy="218.901" r="4.97094" transform="rotate(-35.3133 48.5108 218.901)" fill="#FC6BFF" stroke="#FC6BFF" stroke-width="2"/>
<circle cx="94.0174" cy="186.665" r="4.97094" transform="rotate(-35.3133 94.0174 186.665)" fill="#FC6BFF" stroke="#FC6BFF" stroke-width="2"/>
<circle cx="65.5245" cy="242.918" r="4.97094" transform="rotate(-35.3133 65.5245 242.918)" fill="#FC6BFF" stroke="#FC6BFF" stroke-width="2"/>
<circle cx="111.031" cy="210.682" r="4.97094" transform="rotate(-35.3133 111.031 210.682)" fill="#FC6BFF" stroke="#FC6BFF" stroke-width="2"/>
<rect x="23.8209" y="22.7809" width="98.2404" height="98.2404" rx="14" transform="rotate(-5.70072 23.8209 22.7809)" stroke="#FC6BFF" stroke-width="2"/>
<circle cx="46.9082" cy="40.2616" r="4.97094" transform="rotate(-5.70072 46.9082 40.2616)" fill="#FC6BFF" stroke="#FC6BFF" stroke-width="2"/>
<circle cx="102.4" cy="34.7223" r="4.97094" transform="rotate(-5.70072 102.4 34.7223)" fill="#FC6BFF" stroke="#FC6BFF" stroke-width="2"/>
<circle cx="52.7554" cy="98.8363" r="4.97094" transform="rotate(-5.70072 52.7554 98.8363)" fill="#FC6BFF" stroke="#FC6BFF" stroke-width="2"/>
<circle cx="108.247" cy="93.2968" r="4.97094" transform="rotate(-5.70072 108.247 93.2968)" fill="#FC6BFF" stroke="#FC6BFF" stroke-width=""/>
<path d="M148.01 280.893C182.846 269.577 244.687 219.881 291.414 131.261" stroke="#FC6BFF" stroke-width="2" stroke-linecap="round"/>
<path d="M287.963 43.2047L287.963 43.2051L287.963 43.2051L290.008 44.4939L290.891 42.2438L290.891 42.2438L290.891 42.2432L290.891 42.2425L290.895 42.2344L290.91 42.1959C290.924 42.1606 290.946 42.1062 290.975 42.0339C291.035 41.8891 291.124 41.6725 291.244 41.3933C291.482 40.8347 291.838 40.0267 292.303 39.0425C293.233 37.071 294.592 34.4089 296.304 31.6365C298.021 28.8575 300.067 26.0123 302.362 23.6473C304.669 21.27 307.13 19.4797 309.661 18.6486C314.087 17.1953 316.461 17.9612 317.859 19.475C319.47 21.2186 320.423 24.5655 320.48 29.6258C320.591 39.6118 317.22 54.3017 312.557 69.6433C307.914 84.9173 302.067 100.604 297.374 112.485C295.028 118.422 292.974 123.402 291.506 126.897C290.914 128.307 290.418 129.476 290.036 130.367C289.173 129.881 288.039 129.238 286.673 128.455C283.332 126.54 278.602 123.788 273.058 120.442C261.963 113.746 247.63 104.688 234.623 95.2134C221.551 85.6919 210.044 75.9083 204.393 67.7759C201.536 63.6649 200.479 60.4026 200.919 58.0053C201.319 55.8253 203.128 53.6293 208.058 52.0105C210.589 51.1794 213.633 51.1625 216.9 51.7094C220.15 52.2535 223.484 53.3322 226.514 54.5525C229.537 55.77 232.209 57.1087 234.127 58.1449C235.085 58.6621 235.85 59.1018 236.374 59.4102C236.635 59.5644 236.836 59.6856 236.969 59.7671C236.995 59.783 237.019 59.7973 237.04 59.8101C237.072 59.8302 237.099 59.8465 237.118 59.8587L237.153 59.8806L237.161 59.8853L237.162 59.8857L237.162 59.886L237.162 59.886L239.207 61.1748L240.09 58.9248L240.09 58.9247L240.09 58.9242L240.09 58.9235L240.093 58.9153L240.109 58.8769C240.112 58.8684 240.116 58.8589 240.12 58.8483C240.134 58.8146 240.152 58.7699 240.174 58.7148C240.233 58.57 240.323 58.3534 240.442 58.0742C240.681 57.5157 241.037 56.7076 241.501 55.7235C242.432 53.752 243.79 51.0899 245.503 48.3174C247.22 45.5385 249.266 42.6933 251.561 40.3282C253.868 37.951 256.329 36.1606 258.86 35.3296C261.391 34.4985 264.434 34.4815 267.701 35.0285C270.951 35.5726 274.285 36.6513 277.315 37.8716C280.338 39.089 283.01 40.4278 284.928 41.4639C285.886 41.9811 286.652 42.4208 287.175 42.7293C287.436 42.8834 287.637 43.0047 287.771 43.0862C287.837 43.1269 287.887 43.1578 287.92 43.1778L287.955 43.1997L287.962 43.2044L287.963 43.2047Z" stroke="#FC6BFF" stroke-width="2"/>
<path d="M342.128 208.235L342.129 208.235L342.129 208.235L343.011 205.985L345.056 207.273L345.056 207.274L345.057 207.274L345.057 207.274L345.065 207.279L345.1 207.301C345.132 207.321 345.182 207.352 345.249 207.392C345.382 207.474 345.583 207.595 345.845 207.749C346.368 208.058 347.133 208.497 348.091 209.015C350.009 210.051 352.681 211.39 355.704 212.607C358.734 213.827 362.068 214.906 365.319 215.45C368.586 215.997 371.629 215.98 374.16 215.149C378.586 213.696 380.044 211.671 380.273 209.623C380.536 207.264 379.32 204.004 376.365 199.895C370.536 191.787 359.112 181.955 346.262 172.364C333.469 162.815 319.461 153.648 308.638 146.862C303.23 143.47 298.623 140.677 295.37 138.733C294.056 137.948 292.964 137.302 292.129 136.81C291.722 137.713 291.19 138.903 290.554 140.343C288.998 143.867 286.821 148.887 284.339 154.868C279.373 166.838 273.199 182.629 268.341 197.97C263.458 213.387 259.99 228.087 260.26 237.987C260.396 242.991 261.479 246.245 263.254 247.915C264.868 249.434 267.627 250.13 272.557 248.511C275.088 247.68 277.549 245.889 279.856 243.512C282.151 241.147 284.197 238.302 285.914 235.523C287.627 232.751 288.985 230.088 289.916 228.117C290.38 227.133 290.736 226.325 290.975 225.766C291.094 225.487 291.184 225.27 291.243 225.126C291.254 225.097 291.265 225.072 291.274 225.049C291.288 225.014 291.3 224.985 291.308 224.964L291.324 224.925L291.327 224.917L291.327 224.916L291.327 224.916L291.327 224.916L292.21 222.666L294.255 223.954L294.255 223.954L294.255 223.955L294.256 223.955L294.264 223.96L294.299 223.982C294.306 223.986 294.315 223.992 294.325 223.998C294.356 224.017 294.397 224.042 294.448 224.073C294.581 224.155 294.782 224.276 295.043 224.43C295.567 224.739 296.332 225.178 297.29 225.696C299.208 226.732 301.88 228.07 304.903 229.288C307.933 230.508 311.267 231.587 314.517 232.131C317.784 232.678 320.828 232.661 323.359 231.83C325.89 230.999 328.351 229.209 330.657 226.831C332.953 224.466 334.998 221.621 336.715 218.842C338.428 216.07 339.786 213.408 340.717 211.436C341.181 210.452 341.537 209.644 341.776 209.085C341.895 208.806 341.985 208.589 342.044 208.445C342.074 208.372 342.096 208.318 342.11 208.283L342.125 208.244L342.128 208.236L342.128 208.235Z" stroke="#FC6BFF" stroke-width="2"/>
<path d="M379.567 126.007L379.566 126.007L379.566 126.007L378.398 128.123L380.696 128.874L380.696 128.874L380.697 128.874L380.697 128.874L380.706 128.877L380.745 128.89C380.762 128.896 380.783 128.903 380.809 128.912C380.837 128.921 380.871 128.933 380.91 128.946C381.058 128.997 381.28 129.074 381.566 129.177C382.137 129.382 382.964 129.691 383.974 130.097C385.996 130.912 388.732 132.113 391.6 133.662C394.474 135.215 397.433 137.092 399.927 139.246C402.434 141.411 404.365 143.764 405.341 146.242C407.049 150.576 406.422 152.991 404.992 154.475C403.345 156.184 400.059 157.33 395.011 157.68C385.048 158.371 370.187 155.858 354.601 152.094C339.083 148.347 323.083 143.42 310.95 139.425C304.886 137.428 299.795 135.666 296.221 134.404C294.779 133.895 293.584 133.467 292.672 133.138C293.107 132.248 293.683 131.079 294.385 129.67C296.103 126.222 298.576 121.341 301.595 115.612C307.635 104.147 315.845 89.3123 324.548 75.7768C333.295 62.1743 342.394 50.1188 350.184 44.0047C354.122 40.914 357.318 39.6695 359.736 39.9692C361.936 40.2417 364.233 41.9207 366.136 46.7484C367.112 49.2268 367.306 52.2639 366.95 55.5573C366.595 58.8338 365.712 62.2249 364.67 65.3207C363.63 68.4092 362.449 71.1544 361.526 73.1294C361.065 74.1153 360.67 74.9053 360.393 75.4456C360.254 75.7156 360.145 75.923 360.071 76.061C360.034 76.13 360.006 76.1816 359.988 76.215L359.968 76.2513L359.964 76.259L359.964 76.2597L359.964 76.2602L359.964 76.2602L358.796 78.3764L361.093 79.127L361.093 79.127L361.094 79.1272L361.094 79.1274L361.103 79.1301L361.142 79.1432C361.178 79.1552 361.234 79.174 361.308 79.1993C361.456 79.25 361.677 79.327 361.963 79.4298C362.534 79.6355 363.362 79.944 364.371 80.3506C366.393 81.1651 369.13 82.3665 371.997 83.9154C374.871 85.4679 377.83 87.345 380.324 89.4989C382.832 91.6639 384.762 94.0167 385.738 96.4952C386.715 98.9737 386.909 102.011 386.553 105.304C386.198 108.581 385.315 111.972 384.272 115.068C383.233 118.156 382.051 120.901 381.128 122.876C380.668 123.862 380.273 124.652 379.996 125.192C379.857 125.462 379.747 125.67 379.674 125.808C379.658 125.838 379.644 125.864 379.631 125.887C379.615 125.918 379.601 125.943 379.591 125.962L379.571 125.998L379.567 126.006L379.567 126.007Z" stroke="#FC6BFF" stroke-width="2"/>
<path d="M214.84 179.57L214.84 179.57L214.84 179.57L217.035 180.582L215.63 182.549L215.63 182.549L215.629 182.549L215.629 182.55L215.624 182.557L215.6 182.591C215.578 182.622 215.544 182.67 215.5 182.734C215.411 182.863 215.278 183.056 215.109 183.308C214.771 183.812 214.287 184.551 213.715 185.477C212.57 187.332 211.078 189.922 209.687 192.869C208.293 195.823 207.022 199.089 206.29 202.302C205.555 205.532 205.395 208.571 206.078 211.146C207.271 215.649 209.208 217.222 211.239 217.569C213.579 217.969 216.904 216.944 221.178 214.234C229.611 208.884 240.089 198.051 250.411 185.78C260.686 173.563 270.651 160.111 278.054 149.7C281.754 144.498 284.81 140.061 286.94 136.926C287.8 135.661 288.508 134.608 289.048 133.802C288.17 133.344 287.013 132.743 285.612 132.025C282.185 130.267 277.3 127.802 271.473 124.977C259.811 119.324 244.405 112.244 229.372 106.503C214.265 100.733 199.791 96.4177 189.892 96.1119C184.888 95.9573 181.577 96.8494 179.807 98.5245C178.197 100.048 177.342 102.762 178.672 107.778C179.355 110.353 180.999 112.913 183.238 115.354C185.466 117.783 188.188 119.991 190.862 121.866C193.531 123.737 196.109 125.247 198.023 126.291C198.979 126.812 199.765 127.214 200.309 127.484C200.581 127.62 200.792 127.722 200.933 127.789C201.003 127.823 201.056 127.848 201.091 127.864L201.128 127.882L201.136 127.886L201.137 127.886L201.137 127.886L201.137 127.886L203.332 128.898L201.927 130.864L201.927 130.865L201.927 130.865L201.926 130.866L201.921 130.873L201.897 130.907C201.875 130.938 201.842 130.986 201.797 131.05C201.708 131.178 201.575 131.372 201.406 131.624C201.068 132.128 200.584 132.867 200.013 133.793C198.867 135.648 197.375 138.238 195.984 141.185C194.59 144.139 193.319 147.405 192.588 150.618C191.852 153.848 191.692 156.887 192.375 159.462C193.057 162.037 194.702 164.597 196.941 167.039C199.169 169.467 201.89 171.675 204.565 173.55C207.233 175.421 209.812 176.931 211.726 177.975C212.682 178.496 213.468 178.898 214.012 179.169C214.283 179.304 214.494 179.406 214.635 179.474C214.706 179.507 214.759 179.532 214.793 179.548L214.831 179.566L214.839 179.57L214.84 179.57Z" stroke="#FC6BFF" stroke-width="2"/>
</svg>
