<svg width="363" height="305" viewBox="0 0 363 305" fill="none" xmlns="http://www.w3.org/2000/svg">
<path d="M150.913 99.739L2 37.7825V132.348L150.913 99.739Z" fill="#440101"/>
<path d="M2 233.435V132.348M2 132.348V37.7825L150.913 99.739L2 132.348Z" stroke="#FC6BFF" stroke-width="3" stroke-linecap="round"/>
<path d="M298.739 64.9565L149.826 3V97.5652L298.739 64.9565Z" fill="#440101"/>
<path d="M149.826 198.652V97.5652M149.826 97.5652V3L298.739 64.9565L149.826 97.5652Z" stroke="#FC6BFF" stroke-width="3" stroke-linecap="round"/>
<path d="M357.435 134.522L208.522 72.5657V167.131L357.435 134.522Z" fill="#440101"/>
<path d="M208.522 268.218V167.131M208.522 167.131V72.5657L357.435 134.522L208.522 167.131Z" stroke="#FC6BFF" stroke-width="3" stroke-linecap="round"/>
<path d="M224.826 169.304L75.9128 107.348V201.913L224.826 169.304Z" fill="#440101"/>
<path d="M75.9128 303V201.913M75.9128 201.913V107.348L224.826 169.304L75.9128 201.913Z" stroke="#FC6BFF" stroke-width="3" stroke-linecap="round"/>
</svg>
