<svg width="50" height="90" viewBox="0 0 50 90" fill="none" xmlns="http://www.w3.org/2000/svg">
<path d="M9.972 7.672C9.92933 8.07733 9.89733 8.472 9.876 8.856C9.86533 9.22933 9.86 9.51733 9.86 9.72C9.86 9.976 9.86533 10.216 9.876 10.44C9.88667 10.664 9.89733 10.8613 9.908 11.032H9.54C9.46533 10.2853 9.364 9.69867 9.236 9.272C9.108 8.83467 8.884 8.52 8.564 8.328C8.244 8.136 7.748 8.04 7.076 8.04H6.212V17.144C6.212 17.5707 6.24933 17.8907 6.324 18.104C6.40933 18.3173 6.56933 18.4613 6.804 18.536C7.03867 18.6107 7.38 18.6587 7.828 18.68V19C7.55067 18.9787 7.19867 18.968 6.772 18.968C6.34533 18.9573 5.91333 18.952 5.476 18.952C4.996 18.952 4.54267 18.9573 4.116 18.968C3.7 18.968 3.364 18.9787 3.108 19V18.68C3.556 18.6587 3.89733 18.6107 4.132 18.536C4.36667 18.4613 4.52133 18.3173 4.596 18.104C4.68133 17.8907 4.724 17.5707 4.724 17.144V8.04H3.86C3.19867 8.04 2.70267 8.136 2.372 8.328C2.052 8.52 1.828 8.83467 1.7 9.272C1.572 9.69867 1.47067 10.2853 1.396 11.032H1.028C1.04933 10.8613 1.06 10.664 1.06 10.44C1.07067 10.216 1.076 9.976 1.076 9.72C1.076 9.51733 1.06533 9.22933 1.044 8.856C1.03333 8.472 1.00667 8.07733 0.964 7.672C1.412 7.68267 1.89733 7.69333 2.42 7.704C2.95333 7.71467 3.48667 7.72 4.02 7.72C4.55333 7.72 5.03867 7.72 5.476 7.72C5.91333 7.72 6.39333 7.72 6.916 7.72C7.44933 7.72 7.98267 7.71467 8.516 7.704C9.04933 7.69333 9.53467 7.68267 9.972 7.672ZM14.134 10.536C14.8167 10.536 15.43 10.6853 15.974 10.984C16.518 11.2827 16.95 11.752 17.27 12.392C17.6007 13.032 17.766 13.864 17.766 14.888C17.766 15.912 17.6007 16.744 17.27 17.384C16.95 18.0133 16.518 18.4773 15.974 18.776C15.43 19.0747 14.8167 19.224 14.134 19.224C13.462 19.224 12.8487 19.0747 12.294 18.776C11.75 18.4773 11.3127 18.0133 10.982 17.384C10.662 16.744 10.502 15.912 10.502 14.888C10.502 13.864 10.662 13.032 10.982 12.392C11.3127 11.752 11.75 11.2827 12.294 10.984C12.8487 10.6853 13.462 10.536 14.134 10.536ZM14.134 10.856C13.526 10.856 13.0247 11.1707 12.63 11.8C12.246 12.4293 12.054 13.4587 12.054 14.888C12.054 16.3173 12.246 17.3467 12.63 17.976C13.0247 18.5947 13.526 18.904 14.134 18.904C14.742 18.904 15.238 18.5947 15.622 17.976C16.0167 17.3467 16.214 16.3173 16.214 14.888C16.214 13.4587 16.0167 12.4293 15.622 11.8C15.238 11.1707 14.742 10.856 14.134 10.856ZM20.8036 6.76C21.081 6.76 21.321 6.86133 21.5236 7.064C21.7263 7.26667 21.8276 7.50667 21.8276 7.784C21.8276 8.06133 21.7263 8.30133 21.5236 8.504C21.321 8.70667 21.081 8.808 20.8036 8.808C20.5263 8.808 20.2863 8.70667 20.0836 8.504C19.881 8.30133 19.7796 8.06133 19.7796 7.784C19.7796 7.50667 19.881 7.26667 20.0836 7.064C20.2863 6.86133 20.5263 6.76 20.8036 6.76ZM21.6356 10.584V17.512C21.6356 17.96 21.7263 18.264 21.9076 18.424C22.0996 18.584 22.4143 18.664 22.8516 18.664V19C22.6703 18.9893 22.393 18.9787 22.0196 18.968C21.657 18.9467 21.289 18.936 20.9156 18.936C20.553 18.936 20.185 18.9467 19.8116 18.968C19.4383 18.9787 19.161 18.9893 18.9796 19V18.664C19.417 18.664 19.7263 18.584 19.9076 18.424C20.0996 18.264 20.1956 17.96 20.1956 17.512V12.504C20.1956 12.024 20.1103 11.672 19.9396 11.448C19.769 11.2133 19.449 11.096 18.9796 11.096V10.76C19.321 10.792 19.6516 10.808 19.9716 10.808C20.281 10.808 20.5743 10.792 20.8516 10.76C21.1396 10.7173 21.401 10.6587 21.6356 10.584ZM26.2111 6.456V17.512C26.2111 17.96 26.3018 18.264 26.4831 18.424C26.6751 18.584 26.9898 18.664 27.4271 18.664V19C27.2458 18.9893 26.9685 18.9787 26.5951 18.968C26.2325 18.9467 25.8645 18.936 25.4911 18.936C25.1285 18.936 24.7605 18.9467 24.3871 18.968C24.0138 18.9787 23.7365 18.9893 23.5551 19V18.664C23.9925 18.664 24.3018 18.584 24.4831 18.424C24.6751 18.264 24.7711 17.96 24.7711 17.512V8.376C24.7711 7.896 24.6858 7.544 24.5151 7.32C24.3445 7.08533 24.0245 6.968 23.5551 6.968V6.632C23.8965 6.664 24.2271 6.68 24.5471 6.68C24.8565 6.68 25.1498 6.664 25.4271 6.632C25.7151 6.58933 25.9765 6.53067 26.2111 6.456ZM31.977 10.536C32.9157 10.536 33.6463 10.824 34.169 11.4C34.7023 11.9653 34.969 12.8507 34.969 14.056H29.321L29.305 13.752H33.433C33.4543 13.2293 33.4117 12.7493 33.305 12.312C33.1983 11.864 33.0277 11.5067 32.793 11.24C32.569 10.9733 32.2757 10.84 31.913 10.84C31.4223 10.84 30.985 11.0853 30.601 11.576C30.2277 12.0667 30.0037 12.8453 29.929 13.912L29.977 13.976C29.9557 14.136 29.9397 14.312 29.929 14.504C29.9183 14.696 29.913 14.888 29.913 15.08C29.913 15.8053 30.0303 16.4293 30.265 16.952C30.4997 17.4747 30.8037 17.8747 31.177 18.152C31.561 18.4187 31.9557 18.552 32.361 18.552C32.681 18.552 32.985 18.504 33.273 18.408C33.561 18.3013 33.8277 18.1307 34.073 17.896C34.3183 17.6613 34.5317 17.3467 34.713 16.952L35.033 17.08C34.9157 17.432 34.7237 17.7733 34.457 18.104C34.1903 18.4347 33.8543 18.7067 33.449 18.92C33.0437 19.1227 32.5743 19.224 32.041 19.224C31.273 19.224 30.6117 19.048 30.057 18.696C29.513 18.344 29.0917 17.8587 28.793 17.24C28.505 16.6107 28.361 15.8907 28.361 15.08C28.361 14.1413 28.5103 13.336 28.809 12.664C29.1077 11.9813 29.529 11.4587 30.073 11.096C30.617 10.7227 31.2517 10.536 31.977 10.536ZM38.7588 8.104V10.776H41.1268V11.096H38.7588V17.288C38.7588 17.7893 38.8494 18.1413 39.0308 18.344C39.2121 18.5467 39.4628 18.648 39.7828 18.648C40.1028 18.648 40.3801 18.52 40.6148 18.264C40.8494 17.9973 41.0521 17.5547 41.2228 16.936L41.5428 17.016C41.4361 17.6347 41.2228 18.1573 40.9028 18.584C40.5934 19.0107 40.1134 19.224 39.4628 19.224C39.1001 19.224 38.8014 19.176 38.5668 19.08C38.3321 18.9947 38.1241 18.8667 37.9428 18.696C37.7081 18.4507 37.5428 18.1573 37.4468 17.816C37.3614 17.4747 37.3188 17.0213 37.3188 16.456V11.096H35.7828V10.776H37.3188V8.328C37.5854 8.31733 37.8414 8.296 38.0868 8.264C38.3321 8.232 38.5561 8.17867 38.7588 8.104ZM44.703 10.536C45.1297 10.536 45.4923 10.6053 45.791 10.744C46.0897 10.8827 46.3083 11.0107 46.447 11.128C46.799 11.416 47.0123 11.224 47.087 10.552H47.455C47.4337 10.8507 47.4177 11.208 47.407 11.624C47.3963 12.0293 47.391 12.5787 47.391 13.272H47.023C46.959 12.8773 46.847 12.4933 46.687 12.12C46.5377 11.7467 46.3137 11.4427 46.015 11.208C45.7163 10.9627 45.327 10.84 44.847 10.84C44.4737 10.84 44.159 10.9467 43.903 11.16C43.6577 11.3627 43.535 11.6667 43.535 12.072C43.535 12.392 43.631 12.6693 43.823 12.904C44.015 13.128 44.2657 13.3413 44.575 13.544C44.8843 13.736 45.2203 13.9493 45.583 14.184C45.9883 14.44 46.3563 14.7013 46.687 14.968C47.0177 15.2347 47.279 15.528 47.471 15.848C47.6737 16.168 47.775 16.5467 47.775 16.984C47.775 17.4747 47.647 17.8853 47.391 18.216C47.135 18.5467 46.799 18.7973 46.383 18.968C45.9777 19.1387 45.5297 19.224 45.039 19.224C44.8043 19.224 44.5803 19.2027 44.367 19.16C44.1643 19.128 43.967 19.0747 43.775 19C43.6683 18.9467 43.5563 18.8827 43.439 18.808C43.3323 18.7333 43.2257 18.6533 43.119 18.568C43.0123 18.4827 42.9163 18.488 42.831 18.584C42.7457 18.6693 42.6817 18.8453 42.639 19.112H42.271C42.2923 18.7707 42.3083 18.3547 42.319 17.864C42.3297 17.3733 42.335 16.7227 42.335 15.912H42.703C42.7777 16.5093 42.8843 17.032 43.023 17.48C43.1617 17.928 43.3803 18.28 43.679 18.536C43.9777 18.7813 44.3937 18.904 44.927 18.904C45.1403 18.904 45.3537 18.856 45.567 18.76C45.791 18.664 45.9777 18.504 46.127 18.28C46.2763 18.056 46.351 17.7573 46.351 17.384C46.351 16.9147 46.1803 16.5307 45.839 16.232C45.4977 15.9333 45.0657 15.6187 44.543 15.288C44.159 15.0427 43.7963 14.7973 43.455 14.552C43.1243 14.3067 42.8523 14.0293 42.639 13.72C42.4363 13.4107 42.335 13.0373 42.335 12.6C42.335 12.12 42.4417 11.7307 42.655 11.432C42.879 11.1227 43.1723 10.8987 43.535 10.76C43.8977 10.6107 44.287 10.536 44.703 10.536Z" fill="white"/>
<circle cx="25" cy="65" r="25" fill="#FC6BFF"/>
</svg>
