<svg xmlns="http://www.w3.org/2000/svg" width="219" height="300" viewBox="0 0 219 300" fill="none">
  <path fill-rule="evenodd" clip-rule="evenodd" d="M19.6828 148.431C19.6828 148.431 53.959 140.917 68.7364 153.322L0 226.688L9.78127 235.852C9.78127 235.852 45.3377 228.058 59.6348 241.453C73.9319 254.848 68.4689 290.836 68.4689 290.836L78.2501 300L208.727 160.733L198.946 151.569C198.946 151.569 164.67 159.083 149.892 146.678L218.629 73.3115L208.847 64.1476C208.847 64.1476 173.291 71.9419 158.994 58.5472C144.697 45.1524 150.16 9.16394 150.16 9.16394L140.379 0L9.90155 139.267L19.6828 148.431ZM154.279 100.921C154.761 100.407 155.568 100.38 156.083 100.862L173.782 117.445L215.02 73.4291L208.061 66.9092L207.941 66.9319L207.761 66.9659C206.732 67.1582 205.254 67.4161 203.439 67.6822C199.813 68.2137 194.816 68.7821 189.348 68.9226C183.891 69.0628 177.888 68.7793 172.277 67.5688C166.686 66.3627 161.286 64.1935 157.248 60.4103C153.21 56.6271 150.694 51.38 149.127 45.8799C147.554 40.3598 146.88 34.3871 146.664 28.9333C146.449 23.4676 146.691 18.4439 146.985 14.7914C147.132 12.9625 147.293 11.4709 147.418 10.4317L147.433 10.3075L147.455 10.1285L140.496 3.60861L99.2585 47.6243L116.958 64.2067C117.472 64.6887 117.499 65.4965 117.017 66.011C116.535 66.5255 115.727 66.5518 115.212 66.0698L97.513 49.4874L13.5102 139.149L20.4692 145.669C20.5646 145.651 20.6647 145.632 20.7694 145.612C21.7982 145.42 23.2762 145.162 25.0916 144.896C28.7173 144.364 33.7145 143.796 39.1826 143.656C44.639 143.515 50.6428 143.799 56.2536 145.009C61.4837 146.138 67.5473 149.196 71.4848 152.543C74.917 156.218 77.9765 161.691 79.4036 166.698C80.9768 172.218 81.6505 178.191 81.8658 183.645C82.0817 189.111 81.8398 194.134 81.5454 197.787C81.398 199.616 81.2369 201.107 81.112 202.146C81.0993 202.252 81.0869 202.353 81.075 202.45L88.0341 208.97L172.037 119.308L154.337 102.726C153.823 102.244 153.797 101.436 154.279 100.921ZM148.145 148.544C152.082 151.891 157.145 153.862 162.375 154.991C167.986 156.201 173.99 156.485 179.446 156.344C184.914 156.204 189.911 155.636 193.537 155.104C195.353 154.838 196.831 154.58 197.859 154.388L198.028 154.356L198.16 154.331L205.119 160.851L163.881 204.867L146.181 188.284C145.667 187.802 144.859 187.829 144.377 188.343C143.895 188.858 143.921 189.665 144.436 190.147L162.135 206.73L78.1325 296.391L71.1735 289.872C71.1854 289.775 71.1977 289.674 71.2105 289.568C71.3354 288.529 71.4965 287.038 71.6439 285.209C71.9382 281.556 72.1801 276.532 71.9643 271.067C71.7489 265.613 71.0752 259.64 69.502 254.12C67.9345 248.62 65.4184 243.373 61.3804 239.59C57.3423 235.807 51.9425 233.637 46.352 232.431C40.7412 231.221 34.7374 230.937 29.2811 231.077C23.813 231.218 18.8157 231.786 15.19 232.318C13.3746 232.584 11.8967 232.842 10.8679 233.034C10.7631 233.054 10.663 233.073 10.5677 233.091L3.60861 226.571L70.5811 155.087C83.5613 169.219 78.3704 203.414 78.3704 203.414L88.1517 212.578L148.145 148.544Z" fill="#FC6BFF"/>
</svg>