<svg xmlns="http://www.w3.org/2000/svg" width="265" height="300" viewBox="0 0 265 300" fill="none">
  <path fill-rule="evenodd" clip-rule="evenodd" d="M39.7698 108.448V12.5737C39.7698 5.62943 45.3992 0 52.3435 0H212.658C219.602 0 225.231 5.62943 225.231 12.5737V108.448H255.094C260.302 108.448 264.559 112.684 264.194 117.88C260.355 172.43 223.474 217.861 173.442 234.286L191.865 284.125C194.711 291.823 189.016 300 180.809 300H82.6279C74.421 300 68.7258 291.823 71.5713 284.125L90.0798 234.056C40.4003 217.44 3.84302 172.177 0.0219207 117.88C-0.343693 112.684 3.91327 108.448 9.12146 108.448H39.7698ZM212.658 3.14342H52.3435C47.1353 3.14342 42.9132 7.36549 42.9132 12.5737V108.448H222.088V12.5737C222.088 7.36549 217.866 3.14342 212.658 3.14342ZM68.8464 29.4695C67.9784 29.4695 67.2747 30.1732 67.2747 31.0413C67.2747 31.9093 67.9784 32.613 68.8464 32.613H119.141C120.009 32.613 120.713 31.9093 120.713 31.0413C120.713 30.1732 120.009 29.4695 119.141 29.4695H68.8464ZM169.348 232.276C218.248 216.272 257.307 170.951 261.058 117.659C261.285 114.425 258.626 111.591 255.094 111.591H9.12146C5.58953 111.591 2.93001 114.425 3.15758 117.659C6.89018 170.699 45.6203 215.868 94.1673 232.064C106.165 235.742 118.905 237.721 132.108 237.721C145.054 237.721 157.555 235.818 169.348 232.276ZM93.0754 235.018C105.414 238.818 118.522 240.864 132.108 240.864C145.437 240.864 158.306 238.895 170.44 235.231L188.917 285.215C191.004 290.86 186.827 296.857 180.809 296.857H82.6279C76.6095 296.857 72.433 290.86 74.5197 285.215L93.0754 235.018Z" fill="#FC6BFF"/>
</svg>